<?xml version="1.0" encoding="UTF-8"?>
<!DOCTYPE svg PUBLIC "-//W3C//DTD SVG 1.1//EN" "http://www.w3.org/Graphics/SVG/1.1/DTD/svg11.dtd">
<!-- Creator: CorelDRAW X6 -->
<svg xmlns="http://www.w3.org/2000/svg" xml:space="preserve" width="4.5in" height="3.675in" version="1.1" style="shape-rendering:geometricPrecision; text-rendering:geometricPrecision; image-rendering:optimizeQuality; fill-rule:evenodd; clip-rule:evenodd"
viewBox="0 0 4500 3675"
 xmlns:xlink="http://www.w3.org/1999/xlink">
 <defs>
  <style type="text/css">
   <![CDATA[
    .str0 {stroke:#32519D;stroke-width:14.8858}
    .fil0 {fill:#32519D;fill-rule:nonzero}
    .fil1 {fill:#FCC131;fill-rule:nonzero}
   ]]>
  </style>
 </defs>
 <g id="Logo">
  <metadata id="CorelCorpID_0Corel-Layer"/>
  <g id="_318313016">
   <g>
    <path class="fil0" d="M2381 1919c-80,0 -142,26 -188,79 -46,53 -69,126 -69,218 0,95 22,168 67,220 44,52 108,77 190,77 50,0 108,-9 173,-27l0 74c-50,19 -112,28 -186,28 -107,0 -189,-32 -247,-97 -58,-65 -87,-157 -87,-276 0,-75 14,-140 42,-196 28,-56 68,-99 121,-130 53,-30 115,-46 186,-46 76,0 142,14 199,42l-36 72c-55,-26 -110,-39 -164,-39z"/>
    <path class="fil0" d="M3119 2385c0,64 -23,113 -69,149 -46,36 -109,53 -188,53 -86,0 -152,-11 -198,-33l0 -81c30,13 62,22 97,30 35,7 70,11 104,11 56,0 98,-11 127,-32 28,-21 43,-51 43,-89 0,-25 -5,-46 -15,-62 -10,-16 -27,-31 -50,-44 -24,-14 -60,-29 -108,-46 -67,-24 -115,-53 -144,-86 -29,-33 -43,-76 -43,-129 0,-56 21,-100 63,-133 42,-33 97,-50 166,-50 72,0 138,13 199,40l-26 73c-60,-25 -118,-38 -174,-38 -45,0 -79,10 -104,29 -25,19 -38,46 -38,80 0,25 5,46 14,62 9,16 25,31 47,44 22,13 56,28 101,44 76,27 128,56 157,87 29,31 43,71 43,121z"/>
    <path class="fil0" d="M3547 1919c-80,0 -142,26 -188,79 -46,53 -69,126 -69,218 0,95 22,168 67,220 44,52 108,77 190,77 50,0 108,-9 173,-27l0 74c-50,19 -112,28 -186,28 -107,0 -189,-32 -247,-97 -58,-65 -87,-157 -87,-276 0,-75 14,-140 42,-196 28,-56 68,-99 121,-130 53,-30 115,-46 186,-46 76,0 142,14 199,42l-36 72c-55,-26 -110,-39 -164,-39z"/>
   </g>
   <g>
    <path class="fil1 str0" d="M1321 1854l0 468c0,53 -11,100 -34,140 -23,40 -56,71 -100,93 -43,22 -95,32 -156,32 -90,0 -160,-24 -209,-71 -50,-48 -75,-113 -75,-196l0 -466 119 0 0 458c0,60 14,104 42,132 28,28 70,43 128,43 112,0 167,-59 167,-176l0 -457 118 0z"/>
    <path class="fil1 str0" d="M1770 1945c-68,0 -121,24 -160,72 -39,48 -58,115 -58,199 0,89 19,156 56,202 37,46 92,68 163,68 31,0 60,-3 89,-9 29,-6 59,-14 90,-23l0 101c-57,21 -121,32 -193,32 -106,0 -187,-32 -244,-96 -57,-64 -85,-156 -85,-275 0,-75 14,-141 41,-198 28,-56 67,-100 120,-130 52,-30 113,-45 184,-45 74,0 142,16 205,47l-43 99c-24,-12 -50,-22 -77,-30 -27,-9 -56,-13 -86,-13z"/>
   </g>
   <g>
    <path class="fil0" d="M1172 1032c-11,0 -19,9 -19,20 0,3 1,6 2,8l-70 78c0,-29 0,-54 0,-74 9,-3 16,-11 16,-21 0,-12 -10,-22 -22,-22 -12,0 -22,10 -22,22 0,10 7,19 17,21 0,83 0,669 0,680 -9,3 -16,11 -16,21 0,12 10,22 22,22 12,0 22,-10 22,-22 0,-10 -7,-19 -16,-21 0,-17 0,-412 0,-584l80 -90c2,1 5,2 8,2 11,0 20,-9 20,-19 0,-11 -9,-20 -20,-20z"/>
    <path class="fil0" d="M997 1743c0,-9 0,-514 0,-652 9,-3 16,-11 16,-21 0,-12 -10,-22 -22,-22 -12,0 -22,10 -22,22 0,10 7,19 17,21 0,82 0,381 0,443 0,66 0,200 0,209 -10,2 -18,11 -18,22 0,12 10,22 22,22 12,0 22,-10 22,-22 0,-10 -6,-18 -15,-21z"/>
    <path class="fil0" d="M1042 1692c0,0 0,-1 0,-1 0,-192 0,-501 0,-692 0,-2 0,-3 0,-4l39 -1 1 -52c17,-3 30,-18 30,-37 0,-21 -17,-37 -37,-37 -21,0 -37,17 -37,37 0,18 13,33 30,37l0 38 -28 0 0 0 -77 -77 133 -133c3,1 6,2 10,2 12,0 22,-10 22,-22 0,-12 -10,-22 -22,-22 -12,0 -22,10 -22,22 0,4 1,7 3,10l-133 133 -51 -51c2,-3 3,-7 3,-10 0,-12 -10,-22 -22,-22 -12,0 -22,10 -22,22 0,12 10,22 22,22 3,0 6,-1 9,-2l138 139c0,2 -1,511 -1,701 -9,3 -16,11 -16,21 0,12 10,22 22,22 12,0 22,-10 22,-22 0,-10 -7,-19 -16,-21z"/>
   </g>
   <path class="fil0" d="M1256 1574c-20,-20 -50,-40 -99,-49l0 -316 -37 0 0 428c0,0 0,0 0,0l2 1 -2 0c69,17 78,77 83,144l0 2 119 0 0 -9c0,-75 -20,-155 -66,-201z"/>
   <g>
    <path class="fil0" d="M877 2684l0 144c0,48 -19,72 -56,72 -19,0 -33,-6 -43,-19 -10,-12 -15,-30 -15,-53l0 -144 16 0 0 145c0,18 4,33 11,42 7,10 18,14 31,14 13,0 24,-5 30,-14 7,-10 10,-24 10,-43l0 -145 16 0z"/>
    <path class="fil0" d="M996 2694c-17,0 -31,8 -42,25 -10,17 -16,40 -16,70 0,20 2,37 7,51 5,14 12,26 21,33 9,8 19,12 31,12 12,0 22,-2 31,-6l0 13c-8,4 -19,7 -33,7 -15,0 -28,-4 -39,-13 -11,-9 -20,-21 -26,-38 -6,-17 -9,-36 -9,-59 0,-34 7,-61 20,-80 13,-19 31,-29 54,-29 14,0 27,3 37,9l-7 13c-9,-5 -19,-8 -30,-8z"/>
    <path class="fil0" d="M1241 2841c0,17 -5,32 -16,42 -11,11 -24,16 -40,16 -19,0 -33,-2 -45,-7l0 -15c6,3 12,5 21,7 8,2 16,2 24,2 12,0 22,-4 29,-12 8,-8 11,-19 11,-31 0,-12 -3,-21 -8,-28 -5,-7 -16,-14 -31,-21 -12,-6 -21,-11 -27,-16 -6,-5 -10,-11 -13,-18 -3,-7 -4,-15 -4,-25 0,-11 2,-20 7,-28 5,-8 11,-15 20,-19 8,-5 18,-7 28,-7 9,0 17,1 25,3 7,2 13,4 17,6l-6 14c-12,-6 -24,-8 -36,-8 -11,0 -21,4 -28,11 -7,7 -11,17 -11,28 0,12 3,21 8,28 5,7 15,13 31,21 16,7 27,15 34,25 7,9 11,21 11,34z"/>
    <path class="fil0" d="M1364 2805l-21 -79c-2,-9 -4,-17 -5,-25 -1,8 -2,17 -4,25l-20 79 50 0zm24 92l0 0 -21 -77 -56 0 -20 77 -16 0 56 -213 16 0 57 213 -16 0z"/>
    <path class="fil0" d="M1571 2897l-20 0 -88 -191 -1 0c1,13 2,26 2,38l0 153 -15 0 0 -213 20 0 87 189 1 0c-1,-16 -1,-29 -1,-40l0 -149 15 0 0 213z"/>
   </g>
   <polygon class="fil0" points="1618,2684 1618,2698 1664,2698 1664,2897 1680,2897 1680,2698 1726,2698 1726,2684 "/>
   <g>
    <path class="fil0" d="M1837 2805l-21 -79c-2,-9 -4,-17 -5,-25 -1,8 -2,17 -4,25l-20 79 50 0zm24 92l0 0 -21 -77 -57 0 -20 77 -16 0 56 -213 16 0 57 213 -16 0z"/>
    <path class="fil0" d="M1988 2792l0 92 36 0c26,0 39,-16 39,-48 0,-14 -4,-25 -11,-33 -8,-8 -18,-11 -32,-11l-31 0zm0 -13l0 0 29 0c15,0 25,-4 31,-11 6,-7 9,-18 9,-33 0,-12 -3,-21 -10,-28 -7,-6 -17,-10 -30,-10l-29 0 0 82zm-16 -95l0 0 45 0c18,0 32,4 42,13 10,9 15,21 15,38 0,29 -12,45 -35,50l0 1c13,3 23,8 30,16 6,8 10,20 10,35 0,19 -5,34 -14,45 -9,11 -22,16 -39,16l-53 0 0 -213z"/>
    <path class="fil0" d="M2200 2805l-21 -79c-2,-9 -4,-17 -5,-25 -1,8 -2,17 -4,25l-20 79 50 0zm24 92l0 0 -21 -77 -56 0 -20 77 -16 0 56 -213 16 0 57 213 -16 0z"/>
    <path class="fil0" d="M2300 2791l22 0c14,0 25,-4 33,-12 8,-8 11,-20 11,-36 0,-16 -4,-28 -12,-35 -8,-7 -20,-11 -37,-11l-17 0 0 93zm0 13l0 0 0 93 -16 0 0 -213 32 0c23,0 39,5 50,15 11,10 16,24 16,44 0,15 -3,27 -9,36 -6,9 -15,17 -29,21l46 96 -17 0 -43 -93 -30 0z"/>
    <path class="fil0" d="M2458 2792l0 92 36 0c26,0 38,-16 38,-48 0,-14 -4,-25 -11,-33 -8,-8 -18,-11 -32,-11l-31 0zm0 -13l0 0 29 0c15,0 25,-4 31,-11 6,-7 9,-18 9,-33 0,-12 -3,-21 -10,-28 -7,-6 -17,-10 -30,-10l-29 0 0 82zm-16 -95l0 0 45 0c18,0 32,4 42,13 10,9 15,21 15,38 0,29 -12,45 -35,50l0 1c13,3 23,8 30,16 6,8 10,20 10,35 0,19 -5,34 -14,45 -9,11 -22,16 -39,16l-53 0 0 -213z"/>
    <path class="fil0" d="M2670 2805l-21 -79c-2,-9 -4,-17 -5,-25 -1,8 -2,17 -4,25l-20 79 50 0zm24 92l0 0 -21 -77 -56 0 -20 77 -16 0 56 -213 16 0 57 213 -16 0z"/>
    <path class="fil0" d="M2770 2791l22 0c14,0 25,-4 33,-12 8,-8 11,-20 11,-36 0,-16 -4,-28 -12,-35 -8,-7 -20,-11 -37,-11l-17 0 0 93zm0 13l0 0 0 93 -16 0 0 -213 32 0c23,0 39,5 50,15 10,10 16,24 16,44 0,15 -3,27 -9,36 -6,9 -15,17 -29,21l46 96 -17 0 -43 -93 -30 0z"/>
    <path class="fil0" d="M2976 2805l-21 -79c-2,-9 -4,-17 -5,-25 -1,8 -2,17 -4,25l-20 79 50 0zm24 92l0 0 -21 -77 -56 0 -20 77 -16 0 56 -213 16 0 57 213 -16 0z"/>
    <path class="fil0" d="M3252 2897l-125 0 0 -30 41 -54c11,-15 19,-26 23,-33 4,-7 7,-14 9,-21 2,-7 3,-13 3,-20 0,-8 -2,-14 -6,-18 -4,-4 -9,-6 -15,-6 -6,0 -11,1 -16,4 -5,3 -11,8 -18,15l-24 -23c11,-12 21,-19 31,-24 10,-4 20,-6 31,-6 19,0 33,5 44,15 11,10 16,24 16,42 0,8 -1,16 -3,23 -2,7 -5,15 -9,22 -4,7 -9,15 -15,23 -6,8 -21,26 -45,54l0 1 76 0 0 35z"/>
    <path class="fil0" d="M3341 2790c0,30 1,50 4,60 3,10 8,15 16,15 5,0 9,-2 12,-7 3,-4 5,-12 6,-22 1,-10 2,-26 2,-47 0,-29 -2,-49 -4,-60 -3,-11 -8,-16 -16,-16 -8,0 -13,5 -16,16 -3,11 -4,31 -4,60zm84 0l0 0c0,39 -5,66 -15,84 -10,17 -26,26 -49,26 -22,0 -39,-9 -48,-26 -10,-17 -15,-45 -15,-83 0,-38 5,-66 15,-84 10,-17 26,-26 48,-26 22,0 39,8 49,25 10,17 15,45 15,84z"/>
    <path class="fil0" d="M3557 2897l-43 0 0 -125c0,-14 1,-29 2,-47 -1,1 -3,4 -8,9 -5,5 -14,14 -28,27l-24 -24 62 -52 38 0 0 213z"/>
    <path class="fil0" d="M3670 2715c-6,0 -11,3 -15,9 -4,6 -6,16 -6,30 0,11 2,20 5,26 3,6 8,9 15,9 6,0 11,-3 16,-10 4,-6 7,-14 7,-22 0,-13 -2,-23 -6,-31 -4,-8 -9,-12 -16,-12zm64 62l0 0c0,82 -30,123 -90,123 -10,0 -18,-1 -25,-2l0 -33c7,2 14,3 20,3 18,0 31,-6 40,-17 9,-11 14,-29 15,-53l-1 0c-3,8 -8,14 -15,18 -6,4 -14,6 -23,6 -16,0 -28,-6 -37,-18 -9,-12 -13,-28 -13,-49 0,-23 6,-41 17,-54 11,-13 27,-20 46,-20 21,0 37,8 48,25 11,16 17,40 17,71z"/>
   </g>
   <path class="fil0" d="M912 1210l0 316c-50,9 -79,28 -100,49 -46,46 -66,126 -66,201l0 9 119 0 0 -2c6,-67 14,-128 83,-144l0 0 0 0 0 -428 -37 0z"/>
   <g>
    <path class="fil0" d="M1115 1891c10,0 18,-8 18,-18 0,-10 -8,-18 -18,-18 -10,0 -18,8 -18,18 0,10 8,18 18,18z"/>
    <path class="fil0" d="M954 2237l0 -238 41 -59c4,3 8,5 13,5 11,0 21,-9 21,-21 0,-11 -9,-20 -21,-20 -11,0 -21,9 -21,20 0,3 1,6 2,8l-43 61 0 243c-10,2 -18,12 -18,23 0,13 10,23 23,23 13,0 23,-10 23,-23 0,-12 -9,-21 -20,-23z"/>
    <path class="fil0" d="M951 2298c-13,0 -23,10 -23,23 0,13 10,23 23,23 13,0 23,-10 23,-23 0,-13 -10,-23 -23,-23z"/>
    <path class="fil0" d="M951 2359c-13,0 -23,10 -23,23 0,13 10,23 23,23 13,0 23,-10 23,-23 0,-13 -10,-23 -23,-23z"/>
    <path class="fil0" d="M1008 1895c11,0 21,-9 21,-21 0,-11 -9,-21 -21,-21 -11,0 -21,9 -21,21 0,11 9,21 21,21z"/>
    <path class="fil0" d="M1057 1905c-11,0 -21,9 -21,20 0,11 9,21 21,21 5,0 10,-2 13,-5l41 59 0 229 -40 79 -11 0 0 -28 -68 0 0 67 68 0 0 -29 6 0 9 0 0 0 0 0 45 -84 0 -239 -43 -61c1,-3 2,-5 2,-8 0,-11 -9,-20 -21,-20z"/>
    <polygon class="fil0" points="1009,2165 1034,2165 1034,2141 1009,2141 "/>
    <polygon class="fil0" points="1009,2131 1034,2131 1034,2107 1009,2107 "/>
    <polygon class="fil0" points="1034,2074 1009,2074 1009,2098 1034,2098 "/>
    <polygon class="fil0" points="1001,2141 976,2141 976,2165 1001,2165 "/>
    <polygon class="fil0" points="976,2131 1001,2131 1001,2107 976,2107 "/>
    <polygon class="fil0" points="1001,2074 976,2074 976,2098 1001,2098 "/>
    <path class="fil0" d="M1056 2099c7,0 13,-6 13,-13 0,-7 -6,-13 -13,-13 -7,0 -13,6 -13,13 0,7 6,13 13,13z"/>
    <path class="fil0" d="M1056 2133c7,0 13,-6 13,-13 0,-7 -6,-13 -13,-13 -7,0 -13,6 -13,13 0,7 6,13 13,13z"/>
    <path class="fil0" d="M1056 2167c7,0 13,-6 13,-13 0,-7 -6,-13 -13,-13 -7,0 -13,6 -13,13 0,7 6,13 13,13z"/>
    <path class="fil0" d="M1076 1882c1,-2 1,-5 1,-7 0,-11 -9,-21 -21,-21 -11,0 -21,9 -21,21 0,11 9,21 21,21 6,0 10,-2 14,-6l61 88 0 325 -51 94 -22 0 0 -29 -68 0 0 67 68 0 0 -29 26 0 55 -99 0 -335 -64 -91z"/>
    <polygon class="fil0" points="992,2256 1059,2256 1059,2229 1081,2229 1083,2228 1096,2193 1096,2035 1096,2028 1096,2026 1059,2026 1059,2008 992,2008 992,2053 1059,2053 1059,2035 1087,2035 1087,2188 1075,2218 1059,2218 1059,2190 992,2190 "/>
    <polygon class="fil0" points="965,1899 934,1899 934,1929 965,1929 "/>
    <polygon class="fil0" points="965,1858 934,1858 934,1888 965,1888 "/>
   </g>
  </g>
 </g>
</svg>
